<svg width="286" height="76" viewBox="0 0 286 76" fill="none" xmlns="http://www.w3.org/2000/svg">
<g clip-path="url(#clip0)">
<rect y="-4" width="80" height="80" fill="#BA3D5E"/>
<path d="M44.8 17.6H56.7V27.4H44.8V39.3H35V27.4H23.1V17.6H35V5.7H44.8V17.6Z" fill="#F9CDCC"/>
<path d="M38.25 43C40.95 43 43.0333 44 44.5 46C46.0333 44.9667 47.6833 44.2167 49.45 43.75C51.25 43.25 52.85 43 54.25 43H54.75C57.0167 43 58.8333 43.6833 60.2 45.05C61.5667 46.4167 62.25 48.2333 62.25 50.5V70H53.5V52C53.5 51.5 53.3333 51.0833 53 50.75C52.6667 50.4167 52.25 50.25 51.75 50.25H51.5C50 50.25 48.0833 50.5833 45.75 51.25V70H37V52C37 51.5 36.8333 51.0833 36.5 50.75C36.1667 50.4167 35.75 50.25 35.25 50.25H35C33.5 50.25 31.5833 50.5833 29.25 51.25V70H20.5V43.5H28.25L28.75 46C30.3167 44.9667 31.9167 44.2167 33.55 43.75C35.2167 43.25 36.6167 43 37.75 43H38.25ZM76.9902 49.25C75.6569 49.25 74.9902 49.9167 74.9902 51.25V54H83.4902V51.25C83.4902 49.9167 82.8236 49.25 81.4902 49.25H76.9902ZM91.2402 69.5C84.8069 70.1667 78.9736 70.5 73.7402 70.5C71.4736 70.5 69.6569 69.8167 68.2902 68.45C66.9236 67.0833 66.2402 65.2667 66.2402 63V51C66.2402 48.5 66.9402 46.55 68.3402 45.15C69.7736 43.7167 71.7402 43 74.2402 43H84.2402C86.7402 43 88.6902 43.7167 90.0902 45.15C91.5236 46.55 92.2402 48.5 92.2402 51V60.25H74.9902V62.25C74.9902 62.75 75.1569 63.1667 75.4902 63.5C75.8236 63.8333 76.2402 64 76.7402 64C80.0402 64 84.8736 63.75 91.2402 63.25V69.5ZM115.471 70L114.971 67.5C113.404 68.5333 111.787 69.3 110.121 69.8C108.487 70.2667 107.104 70.5 105.971 70.5H103.721C101.454 70.5 99.6374 69.8167 98.2707 68.45C96.904 67.0833 96.2207 65.2667 96.2207 63V51.5C96.2207 49 96.9207 47.05 98.3207 45.65C99.754 44.2167 101.721 43.5 104.221 43.5H114.471V35H123.221V70H115.471ZM108.471 63.25C110.237 63.25 112.237 62.9167 114.471 62.25V50.25H106.971C105.637 50.25 104.971 50.9167 104.971 52.25V61.5C104.971 62 105.137 62.4167 105.471 62.75C105.804 63.0833 106.221 63.25 106.721 63.25H108.471ZM136.965 44C140.198 43.3333 143.032 43 145.465 43H147.715C149.982 43 151.798 43.6833 153.165 45.05C154.532 46.4167 155.215 48.2333 155.215 50.5V70H146.465V51.5C146.465 51 146.298 50.5833 145.965 50.25C145.632 49.9167 145.215 49.75 144.715 49.75H142.965C141.698 49.75 140.532 49.8167 139.465 49.95C138.432 50.0833 137.598 50.1833 136.965 50.25V70H128.215V35H136.965V44ZM169.959 49.25C168.626 49.25 167.959 49.9167 167.959 51.25V54H176.459V51.25C176.459 49.9167 175.792 49.25 174.459 49.25H169.959ZM184.209 69.5C177.776 70.1667 171.942 70.5 166.709 70.5C164.442 70.5 162.626 69.8167 161.259 68.45C159.892 67.0833 159.209 65.2667 159.209 63V51C159.209 48.5 159.909 46.55 161.309 45.15C162.742 43.7167 164.709 43 167.209 43H177.209C179.709 43 181.659 43.7167 183.059 45.15C184.492 46.55 185.209 48.5 185.209 51V60.25H167.959V62.25C167.959 62.75 168.126 63.1667 168.459 63.5C168.792 63.8333 169.209 64 169.709 64C173.009 64 177.842 63.75 184.209 63.25V69.5ZM200.189 63.5C201.956 63.5 203.956 63.1667 206.189 62.5V59.5H198.939C198.439 59.5 198.023 59.6667 197.689 60C197.356 60.3333 197.189 60.75 197.189 61.25V61.75C197.189 62.25 197.356 62.6667 197.689 63C198.023 63.3333 198.439 63.5 198.939 63.5H200.189ZM190.939 44C197.039 43.3333 202.539 43 207.439 43C209.706 43 211.523 43.6833 212.889 45.05C214.256 46.4167 214.939 48.2333 214.939 50.5V70H207.189L206.689 67.5C205.123 68.5333 203.506 69.3 201.839 69.8C200.206 70.2667 198.823 70.5 197.689 70.5H195.939C193.673 70.5 191.856 69.8167 190.489 68.45C189.123 67.0833 188.439 65.2667 188.439 63V60.75C188.439 58.4833 189.123 56.6667 190.489 55.3C191.856 53.9333 193.673 53.25 195.939 53.25H206.189V51.25C206.189 50.75 206.023 50.3333 205.689 50C205.356 49.6667 204.939 49.5 204.439 49.5C202.273 49.5 199.873 49.6 197.239 49.8C194.639 50 192.539 50.15 190.939 50.25V44ZM232.926 70C230.692 70.3333 228.559 70.5 226.526 70.5C224.526 70.5 222.842 69.8167 221.476 68.45C220.109 67.0833 219.426 65.2667 219.426 63V35H228.176V61.75C228.176 62.25 228.342 62.6667 228.676 63C229.009 63.3333 229.426 63.5 229.926 63.5H232.926V70ZM253.941 70C250.708 70.3333 247.541 70.5 244.441 70.5C242.175 70.5 240.358 69.8167 238.991 68.45C237.625 67.0833 236.941 65.2667 236.941 63V50.25H233.941V43.5H236.941L237.941 37.5H245.691V43.5H251.941V50.25H245.691V61.75C245.691 62.25 245.858 62.6667 246.191 63C246.525 63.3333 246.941 63.5 247.441 63.5H253.941V70ZM266.213 44C269.446 43.3333 272.28 43 274.713 43H276.963C279.23 43 281.046 43.6833 282.413 45.05C283.78 46.4167 284.463 48.2333 284.463 50.5V70H275.713V51.5C275.713 51 275.546 50.5833 275.213 50.25C274.88 49.9167 274.463 49.75 273.963 49.75H272.213C270.946 49.75 269.78 49.8167 268.713 49.95C267.68 50.0833 266.846 50.1833 266.213 50.25V70H257.463V35H266.213V44Z" fill="#D8E6F5"/>
</g>
<defs>
<clipPath id="clip0">
<rect width="286" height="76" fill="white"/>
</clipPath>
</defs>
</svg>
