<svg width="51" height="34" viewBox="0 0 51 34" fill="none" xmlns="http://www.w3.org/2000/svg">
<g clip-path="url(#clip0)">
<path d="M33.4 1.7H37.95L32.95 33H26.7L23.2 9.5L19.75 33H13.5L8.5 1.7H13.15L16.65 28.9L20.7 1.7H25.7L29.75 28.9L33.4 1.7Z" fill="#D8E6F5"/>
<path d="M11.6 27.9V20.25C11.6 19.65 11.5 19.2667 11.3 19.1C11.1333 18.9 10.75 18.8 10.15 18.8H6.45C3.41667 18.8 1.9 17.3167 1.9 14.35V6.1C1.9 3.16666 3.45 1.7 6.55 1.7H11.45C14.55 1.7 16.1 3.16666 16.1 6.1V10.7H11.55V6.8C11.55 6.2 11.45 5.81666 11.25 5.65C11.05 5.45 10.65 5.35 10.05 5.35H7.95C7.35 5.35 6.95 5.45 6.75 5.65C6.55 5.81666 6.45 6.2 6.45 6.8V13.75C6.45 14.35 6.55 14.75 6.75 14.95C6.95 15.1167 7.35 15.2 7.95 15.2H11.6C14.6667 15.2 16.2 16.6667 16.2 19.6V28.6C16.2 31.5333 14.6333 33 11.5 33H6.65C3.55 33 2 31.5333 2 28.6V24H6.55V27.9C6.55 28.5 6.65 28.9 6.85 29.1C7.05 29.2667 7.45 29.35 8.05 29.35H10.15C10.75 29.35 11.1333 29.2667 11.3 29.1C11.5 28.9 11.6 28.5 11.6 27.9Z" fill="#5ED77D"/>
<path d="M44.75 1.7H49.25V33H44.75V19.25H38.1V33H33.6V1.7H38.1V15.6H44.75V1.7Z" fill="#D8E6F5"/>
<path d="M34 1.7H38.5V33H34V1.7Z" fill="#5ED77D"/>
</g>
<defs>
<clipPath id="clip0">
<rect width="51" height="34" fill="white"/>
</clipPath>
</defs>
</svg>
